<?xml version="1.0" encoding="UTF-8" standalone="no"?>
<svg
   xmlns:dc="http://purl.org/dc/elements/1.1/"
   xmlns:cc="http://creativecommons.org/ns#"
   xmlns:rdf="http://www.w3.org/1999/02/22-rdf-syntax-ns#"
   xmlns:svg="http://www.w3.org/2000/svg"
   xmlns="http://www.w3.org/2000/svg"
   xmlns:sodipodi="http://sodipodi.sourceforge.net/DTD/sodipodi-0.dtd"
   xmlns:inkscape="http://www.inkscape.org/namespaces/inkscape"
   width="400"
   height="240"
   viewBox="0 0 105.83333 63.5"
   version="1.1"
   id="svg8"
   sodipodi:docname="blog.svg"
   inkscape:version="1.0.2 (e86c870879, 2021-01-15)"
   inkscape:export-filename="/home/rapsys/Images/Logo/Blog/blog.vectorized.png"
   inkscape:export-xdpi="96"
   inkscape:export-ydpi="96">
  <defs
     id="defs2" />
  <sodipodi:namedview
     id="base"
     pagecolor="#ffffff"
     bordercolor="#666666"
     borderopacity="1.0"
     inkscape:pageopacity="0.0"
     inkscape:pageshadow="2"
     inkscape:zoom="1.7709052"
     inkscape:cx="37.307939"
     inkscape:cy="153.57957"
     inkscape:document-units="px"
     inkscape:current-layer="layer1"
     inkscape:document-rotation="0"
     showgrid="false"
     units="px"
     inkscape:window-width="1627"
     inkscape:window-height="857"
     inkscape:window-x="0"
     inkscape:window-y="158"
     inkscape:window-maximized="0"
     inkscape:snap-global="true" />
  <metadata
     id="metadata5">
    <rdf:RDF>
      <cc:Work
         rdf:about="">
        <dc:format>image/svg+xml</dc:format>
        <dc:type
           rdf:resource="http://purl.org/dc/dcmitype/StillImage" />
        <dc:title></dc:title>
      </cc:Work>
    </rdf:RDF>
  </metadata>
  <g
     inkscape:label="Calque 1"
     inkscape:groupmode="layer"
     id="layer1">
    <g
       id="g1847"
       transform="matrix(0.3125,0,0,0.3077671,1.5252648e-7,-20.372944)">
      <path
         style="fill:#78bb16;stroke-width:2.71127"
         d="m 276.19649,256.82609 c -7.20851,-11.91354 -15.69742,-23.69142 -18.91929,-37.39794 -2.75428,-11.71724 0.12288,-24.20998 0.14729,-36.20833 0.0244,-11.99836 0,-35.78166 0,-35.78166 H 229.65618 201.88787 V 122.07417 97.822034 c 0,0 7.39193,0.674669 8.59495,0.784472 1.20303,0.109802 19.30559,3.734354 32.39636,5.980834 44.53129,7.64195 64.91589,24.84119 68.87046,58.10862 l 1.74598,14.68789 7.91281,6.14884 c 33.51172,26.0412 14.63689,88.98814 -26.68339,88.98814 h -7.31332 c 0,0 -7.87467,-10.17379 -11.21523,-15.69474 z"
         id="path1363"
         sodipodi:nodetypes="aazccccczsscssca" />
      <path
         style="fill:#59aa2d;stroke-width:2.71127"
         d="m 110.64914,140.6459 c 7.92034,-6.75315 29.05799,-13.8576 36.20305,-12.16799 2.07642,0.49102 7.75008,-3.86173 12.60815,-9.67279 10.10678,-12.08935 25.60037,-18.70077 32.60166,-20.081268 7.00129,-1.380504 9.82587,-0.825606 9.82587,-0.825606 v 24.214044 25.32587 l -49.58626,-0.0139 -49.58627,-0.0139 7.9338,-6.76464 z"
         id="path1347"
         sodipodi:nodetypes="csszccccccc" />
      <path
         style="fill:#995d35;stroke-width:2.71127"
         d="m 22.055016,271.51324 c 0,-0.55418 3.728931,-5.87019 8.286513,-11.81336 8.603461,-11.21907 20.804096,-37.14214 20.804096,-44.20311 0,-2.22907 -4.462764,-6.00927 -9.917252,-8.40046 -30.501988,-13.37168 -56.155426,-76.33583 -31.101455,-76.33583 5.422963,0 9.760182,5.66491 13.486657,17.61518 5.632655,18.06309 12.575994,28.55355 22.451343,33.92101 l 7.725309,4.19885 V 166.96685 147.43816 H 155.60736 257.42449 c 0,0 0.0244,23.7833 0,35.78166 -0.0244,11.99835 -2.90157,24.49109 -0.14729,36.20833 3.22187,13.70652 13.56251,28.71379 18.91929,37.39794 5.35677,8.68415 7.99123,10.07808 11.21523,15.69474 H 154.44113 c -72.812361,0 -132.386114,-0.45341 -132.386114,-1.00759 z"
         id="path1309"
         sodipodi:nodetypes="sssssssccccczazcss" />
      <path
         style="fill:#7f5331;stroke-width:2.71127"
         d="m 25.730437,266.2667 c 14.178684,-20.52407 18.065898,-27.65206 22.799402,-41.8073 0,0 3.998379,-7.95661 5.260388,-15.73082 1.262008,-7.77422 0,-30.64521 0,-30.64521 v -30.64521 h 50.247423 50.24741 v 62.54134 62.54133 H 87.847469 21.409881 Z M 179.6917,223.65023 c -2.06413,-5.65362 -2.06413,-18.90822 0,-24.56185 2.06874,-5.66628 7.94378,-5.66628 10.01252,0 3.99675,10.94708 0.88298,28.95862 -5.00626,28.95862 -1.87056,0 -4.12337,-1.97854 -5.00626,-4.39677 z m 29.09062,-33.35536 c -2.06413,-5.65364 -2.06413,-18.90823 0,-24.56187 2.06874,-5.66627 7.94378,-5.66627 10.01251,0 3.99675,10.94708 0.88298,28.95862 -5.00625,28.95862 -1.87056,0 -4.12338,-1.97854 -5.00626,-4.39675 z"
         id="path1307"
         sodipodi:nodetypes="sszccccccccsssssssssss" />
      <path
         style="fill:#6f4a2d;stroke-width:2.71127"
         d="m 121.51049,248.66678 c -3.99675,-10.94708 -0.88298,-28.95864 5.00626,-28.95864 4.15865,0 6.61149,6.18741 6.61149,16.6777 0,10.49031 -2.45284,16.67769 -6.61149,16.67769 -1.87056,0 -4.12338,-1.97854 -5.00626,-4.39675 z m 58.18121,-25.01655 c -2.06413,-5.65362 -2.06413,-18.90822 0,-24.56185 2.06874,-5.66628 7.94378,-5.66628 10.01252,0 3.99675,10.94708 0.88298,28.95862 -5.00626,28.95862 -1.87056,0 -4.12337,-1.97854 -5.00626,-4.39677 z M 87.130679,193.07447 c -3.996743,-10.94707 -0.882974,-28.95861 5.006258,-28.95861 4.158648,0 6.611502,6.18738 6.611502,16.67769 0,10.4903 -2.452854,16.67768 -6.611502,16.67768 -1.870557,0 -4.123375,-1.97855 -5.006258,-4.39676 z m 121.651641,-2.7796 c -2.06413,-5.65364 -2.06413,-18.90823 0,-24.56187 2.06874,-5.66627 7.94378,-5.66627 10.01251,0 3.99675,10.94708 0.88298,28.95862 -5.00625,28.95862 -1.87056,0 -4.12338,-1.97854 -5.00626,-4.39675 z"
         id="path1305" />
      <g
         id="g1448-3-5-9-7"
         transform="matrix(0.75349032,0.69609817,-0.73242615,0.71611745,351.00595,41.534723)">
        <path
           style="fill:#009339;stroke-width:2.64583"
           d="m 10.92414,126.55359 c 0.924837,-5.29777 2.156484,-10.61971 4.311689,-15.54686 2.283812,-5.22117 5.012442,-10.46309 8.996357,-14.537969 4.202049,-4.298017 9.490561,-7.714649 15.115852,-9.832731 7.873878,-2.964738 24.981183,-3.609592 24.981183,-3.609592 0,0 -11.348587,13.534043 -26.58056,28.714152 l -27.694495,26.37188 c 0,0 0.205505,-7.75259 0.869974,-11.55888 z"
           id="path1418-6-3-3-9"
           sodipodi:nodetypes="aaaacsca" />
        <path
           style="fill:#007f35;stroke-width:2.64583"
           d="M 37.885057,111.56791 64.329221,83.026438 c 0,0 0.984697,7.630153 0.816023,12.712409 -0.168674,5.082233 -2.243222,13.409403 -5.510768,19.113973 -3.267546,5.70456 -8.119992,10.44746 -13.464945,14.17675 -3.864879,2.69661 -8.481243,4.20147 -12.981654,5.59979 -5.714611,1.77558 -11.655562,2.89981 -17.611168,3.48311 -1.832082,0.17944 -5.522543,0 -5.522543,0 z"
           id="path1402-7-5-6-20"
           sodipodi:nodetypes="cczzaaacc" />
      </g>
      <g
         id="g1448-3-5-9-0-2"
         transform="matrix(0.6960982,-0.75349036,0.71611745,0.73242615,151.52105,53.856692)">
        <path
           style="fill:#009339;stroke-width:2.64583"
           d="m 10.92414,126.55359 c 0.924837,-5.29777 2.156484,-10.61971 4.311689,-15.54686 2.283812,-5.22117 5.012442,-10.46309 8.996357,-14.537969 4.202049,-4.298017 9.490561,-7.714649 15.115852,-9.832731 7.873878,-2.964738 24.981183,-3.609592 24.981183,-3.609592 0,0 -11.348587,13.534043 -26.58056,28.714152 l -27.694495,26.37188 c 0,0 0.205505,-7.75259 0.869974,-11.55888 z"
           id="path1418-6-3-3-6-3"
           sodipodi:nodetypes="aaaacsca" />
        <path
           style="fill:#007f35;stroke-width:2.64583"
           d="M 37.885057,111.56791 64.329221,83.026438 c 0,0 0.984697,7.630153 0.816023,12.712409 -0.168674,5.082233 -2.243222,13.409403 -5.510768,19.113973 -3.267546,5.70456 -8.119992,10.44746 -13.464945,14.17675 -3.864879,2.69661 -8.481243,4.20147 -12.981654,5.59979 -5.714611,1.77558 -11.655562,2.89981 -17.611168,3.48311 -1.832082,0.17944 -5.522543,0 -5.522543,0 z"
           id="path1402-7-5-6-2-7"
           sodipodi:nodetypes="cczzaaacc" />
      </g>
      <g
         id="g1448-3-5-9-6-5"
         transform="matrix(1.0250139,-0.04058238,-0.01153199,1.024275,1.8703848,0.81441704)">
        <path
           style="fill:#009339;stroke-width:2.64583"
           d="m 10.92414,126.55359 c 0.924837,-5.29777 2.156484,-10.61971 4.311689,-15.54686 2.283812,-5.22117 5.012442,-10.46309 8.996357,-14.537969 4.202049,-4.298017 9.490561,-7.714649 15.115852,-9.832731 7.873878,-2.964738 24.981183,-3.609592 24.981183,-3.609592 0,0 -11.348587,13.534043 -26.58056,28.714152 l -27.694495,26.37188 c 0,0 0.205505,-7.75259 0.869974,-11.55888 z"
           id="path1418-6-3-3-1-9"
           sodipodi:nodetypes="aaaacsca" />
        <path
           style="fill:#007f35;stroke-width:2.64583"
           d="M 37.885057,111.56791 64.329221,83.026438 c 0,0 0.984697,7.630153 0.816023,12.712409 -0.168674,5.082233 -2.243222,13.409403 -5.510768,19.113973 -3.267546,5.70456 -8.119992,10.44746 -13.464945,14.17675 -3.864879,2.69661 -8.481243,4.20147 -12.981654,5.59979 -5.714611,1.77558 -11.655562,2.89981 -17.611168,3.48311 -1.832082,0.17944 -5.522543,0 -5.522543,0 z"
           id="path1402-7-5-6-8-2"
           sodipodi:nodetypes="cczzaaacc" />
      </g>
    </g>
  </g>
</svg>
